<?xml version="1.0" standalone="no"?>
<!DOCTYPE svg PUBLIC "-//W3C//DTD SVG 20010904//EN"
 "http://www.w3.org/TR/2001/REC-SVG-20010904/DTD/svg10.dtd">
<svg version="1.0" xmlns="http://www.w3.org/2000/svg"
 width="500.000000pt" height="500.000000pt" viewBox="0 0 500.000000 500.000000"
 preserveAspectRatio="xMidYMid meet">
<metadata>
Created by potrace 1.15, written by Peter Selinger 2001-2017
</metadata>
<g transform="translate(0.000000,500.000000) scale(0.100000,-0.100000)"
fill="#000000" stroke="none">
<path d="M1244 2930 c-12 -5 -24 -20 -28 -34 l-6 -26 -119 0 c-95 0 -123 -3
-135 -16 -19 -19 -20 -26 -4 -42 9 -9 72 -12 224 -12 167 0 214 -3 223 -14 26
-31 -11 -36 -340 -38 l-324 -3 -3 -27 c-4 -36 5 -38 193 -41 126 -2 150 -4
150 -17 0 -12 -18 -16 -85 -20 -80 -5 -85 -6 -88 -29 -2 -13 2 -28 10 -32 7
-5 73 -9 146 -9 125 0 132 -1 132 -20 0 -19 -8 -20 -192 -22 l-193 -3 0 -30 0
-30 120 -3 c66 -1 124 -7 129 -12 15 -15 -12 -39 -47 -42 -27 -2 -32 -7 -32
-28 0 -24 3 -25 70 -28 66 -3 71 -5 90 -35 l20 -32 212 -3 c211 -2 212 -2 227
20 11 18 96 407 96 441 0 4 -36 7 -80 7 l-80 0 0 33 c0 17 4 48 9 67 5 19 12
47 15 63 l6 27 -147 -1 c-82 0 -158 -4 -169 -9z"/>
<path d="M1845 2740 c-47 -14 -113 -77 -142 -134 -39 -76 -44 -184 -11 -245
32 -60 90 -91 167 -91 100 1 180 51 229 145 23 43 27 62 27 142 0 99 -10 123
-69 167 -31 23 -148 32 -201 16z m105 -116 c29 -34 6 -179 -35 -220 -68 -68
-109 23 -70 154 22 71 74 104 105 66z"/>
<path d="M2205 2718 c-18 -109 -65 -411 -65 -423 0 -12 15 -15 70 -15 l69 0 7
52 c5 35 16 61 34 82 l28 30 21 -70 c12 -39 21 -76 21 -83 0 -7 28 -11 85 -11
47 0 85 1 85 3 0 2 -20 63 -45 137 -25 74 -45 140 -45 147 0 6 29 46 65 88 36
42 65 81 65 86 0 5 -28 9 -63 9 l-63 0 -74 -90 c-41 -49 -74 -90 -75 -90 -1 0
4 33 11 73 20 114 24 107 -56 107 l-69 0 -6 -32z"/>
<path d="M2626 2562 c-34 -219 -32 -232 44 -269 108 -55 266 -12 306 83 11 26
64 327 64 363 0 7 -22 11 -58 11 l-59 0 -26 -167 c-20 -123 -32 -171 -44 -180
-25 -19 -82 -16 -90 3 -5 15 30 279 43 327 5 15 -3 17 -73 17 l-78 0 -29 -188z"/>
<path d="M3105 2718 c-18 -109 -65 -411 -65 -423 0 -13 26 -15 165 -15 125 0
165 3 166 13 0 6 4 33 8 60 l8 47 -89 0 c-73 0 -88 3 -88 16 0 8 11 85 25 170
14 85 25 157 25 159 0 3 -34 5 -75 5 l-74 0 -6 -32z"/>
<path d="M3490 2524 c-58 -125 -106 -230 -108 -235 -2 -5 25 -9 60 -9 l63 0
18 45 19 45 58 0 58 0 6 -45 7 -45 75 0 c55 0 74 3 74 13 0 15 -57 384 -66
430 -6 27 -7 27 -82 27 l-77 0 -105 -226z"/>
<path d="M3926 2719 c-19 -107 -66 -412 -66 -424 0 -12 15 -15 73 -15 l74 0
12 85 c11 71 16 85 32 85 12 0 21 -11 28 -37 6 -21 11 -42 11 -48 0 -5 5 -27
11 -47 l10 -38 79 0 c49 0 80 4 80 10 0 6 -10 49 -21 95 l-21 85 41 38 c53 48
71 109 48 164 -25 60 -58 71 -234 76 l-152 4 -5 -33z"/>
</g>
</svg>
